<svg width="103" height="87" viewBox="0 0 103 87" fill="none" xmlns="http://www.w3.org/2000/svg">
<path d="M91.9355 12.3184H71.7805L69.8205 6.4381C68.5861 2.73554 65.1346 0.248047 61.2321 0.248047H41.7679C37.8654 0.248047 34.4139 2.73554 33.1797 6.4381L31.2195 12.3184H26.3535V7.28906C26.3535 3.40665 23.1949 0.248047 19.3125 0.248047H15.2891C11.4066 0.248047 8.24805 3.40665 8.24805 7.28906V12.6829C3.50683 13.9318 0 18.2549 0 23.3828V75.6875C0 81.7884 4.96351 86.752 11.0645 86.752H91.9355C98.0365 86.752 103 81.7884 103 75.6875V23.3828C103 17.2819 98.0365 12.3184 91.9355 12.3184ZM14.2832 7.28906C14.2832 6.73443 14.7344 6.2832 15.2891 6.2832H19.3125C19.8671 6.2832 20.3184 6.73443 20.3184 7.28906V12.3184H14.2832V7.28906ZM96.9648 75.6875C96.9648 78.4607 94.7087 80.7168 91.9355 80.7168H11.0645C8.2913 80.7168 6.03516 78.4607 6.03516 75.6875V23.3828C6.03516 20.6097 8.2913 18.3535 11.0645 18.3535H33.3945C34.6933 18.3535 35.8464 17.5225 36.2572 16.2901L38.905 8.34662C39.3166 7.11243 40.4669 6.2832 41.7679 6.2832H61.2321C62.5331 6.2832 63.6836 7.11243 64.0948 8.34642L66.7426 16.2901C67.1536 17.5225 68.3067 18.3535 69.6055 18.3535H91.9355C94.7087 18.3535 96.9648 20.6097 96.9648 23.3828V75.6875Z" fill="#B2B2B2"/>
<path d="M87.7109 30.4238C89.3775 30.4238 90.7285 29.0728 90.7285 27.4062C90.7285 25.7397 89.3775 24.3887 87.7109 24.3887C86.0444 24.3887 84.6934 25.7397 84.6934 27.4062C84.6934 29.0728 86.0444 30.4238 87.7109 30.4238Z" fill="#B2B2B2"/>
<path d="M21.3242 24.3887H15.2891C13.6226 24.3887 12.2715 25.7397 12.2715 27.4062C12.2715 29.0728 13.6226 30.4238 15.2891 30.4238H21.3242C22.9907 30.4238 24.3418 29.0728 24.3418 27.4062C24.3418 25.7397 22.9907 24.3887 21.3242 24.3887Z" fill="#B2B2B2"/>
<path d="M51.5 74.6816C36.525 74.6816 24.3418 62.4985 24.3418 47.5234C24.3418 32.5484 36.525 20.3652 51.5 20.3652C66.475 20.3652 78.6582 32.5484 78.6582 47.5234C78.6582 62.4985 66.475 74.6816 51.5 74.6816ZM51.5 26.4004C39.8528 26.4004 30.377 35.8762 30.377 47.5234C30.377 59.1707 39.8528 68.6465 51.5 68.6465C63.1472 68.6465 72.623 59.1707 72.623 47.5234C72.623 35.8762 63.1472 26.4004 51.5 26.4004Z" fill="#B2B2B2"/>
<path d="M51.5 62.6113C43.1805 62.6113 36.4121 55.8429 36.4121 47.5234C36.4121 39.204 43.1805 32.4355 51.5 32.4355C59.8195 32.4355 66.5879 39.204 66.5879 47.5234C66.5879 55.8429 59.8195 62.6113 51.5 62.6113ZM51.5 38.4707C46.5083 38.4707 42.4473 42.5318 42.4473 47.5234C42.4473 52.5151 46.5083 56.5762 51.5 56.5762C56.4917 56.5762 60.5527 52.5151 60.5527 47.5234C60.5527 42.5318 56.4917 38.4707 51.5 38.4707Z" fill="#B2B2B2"/>
</svg>
