<svg width="53" height="53" viewBox="0 0 53 53" fill="none" xmlns="http://www.w3.org/2000/svg">
<g clip-path="url(#clip0)">
<path d="M50.3498 23.85H29.1502V2.64984C29.1502 1.18736 27.9628 0 26.4998 0C25.0374 0 23.85 1.18736 23.85 2.64984V23.85H2.64984C1.18736 23.85 0 25.0374 0 26.4998C0 27.9628 1.18736 29.1502 2.64984 29.1502H23.85V50.3498C23.85 51.8128 25.0374 53.0002 26.4998 53.0002C27.9628 53.0002 29.1502 51.8128 29.1502 50.3498V29.1502H50.3498C51.8128 29.1502 53.0002 27.9628 53.0002 26.4998C53.0002 25.0374 51.8128 23.85 50.3498 23.85Z" fill="#B2B2B2"/>
</g>
<defs>
<clipPath id="clip0">
<rect width="53" height="53" fill="white"/>
</clipPath>
</defs>
</svg>
